<svg width="542" height="516" viewBox="0 0 542 516" fill="none" xmlns="http://www.w3.org/2000/svg">
<g clip-path="url(#clip0_4_28)">
<path d="M23.0477 -6.96265C113.441 10.8444 111.165 61.9575 178.759 93.276C248.582 125.413 285.664 113.78 381.423 156.705C442.063 183.808 455.308 309.34 495.726 343.673C544.632 384.901 627.508 388.9 659.086 433.931C677.852 460.82 696.435 487.577 715.201 514.465" stroke="url(#paint0_linear_4_28)" stroke-miterlimit="10"/>
<path d="M51.9458 -15.4487C112.07 -3.66607 131.348 23.0663 157.488 48.7021C170.468 61.4545 185.181 73.8808 207.585 84.2318C276.69 116.385 314.67 105.408 407.163 148.359C425.626 156.923 438.848 174.573 450.317 195.685C474.347 240.533 491.414 300.312 517.327 328.408C519.456 330.728 521.662 332.84 523.945 334.746C564.661 368.248 627.37 377.43 666.181 404.312C674.793 410.248 682.14 417.109 687.881 425.178C706.9 451.986 725.401 478.946 744.161 505.831" stroke="url(#paint1_linear_4_28)" stroke-miterlimit="10"/>
<path d="M80.8207 -23.9204C140.486 -12.1942 159.834 14.3272 186.226 39.8829C199.02 52.5028 213.73 64.9282 235.868 75.3537C304.07 107.392 343.385 97.1242 432.355 140.176C450.293 148.891 463.253 166.616 474.278 187.669C497.706 232.869 517.252 291.541 544.736 319.72C546.864 322.04 549.07 324.152 551.611 325.982C593.168 359.043 655.444 368.713 694.243 395.591C702.853 401.527 710.455 408.311 716.195 416.378C735.649 443.237 754.144 470.193 772.64 497.15" stroke="url(#paint2_linear_4_28)" stroke-miterlimit="10"/>
<path d="M109.696 -32.4079C169.347 -20.6831 188.768 5.62824 214.97 31.0502C227.761 43.6685 242.544 55.8852 264.418 66.3853C331.98 98.2352 372.117 88.8284 458.086 131.83C475.943 140.751 487.941 158.571 498.522 179.567C521.531 225.251 543.375 282.687 572.43 310.95C574.817 313.193 577.022 315.305 579.304 317.211C621.264 349.779 683.112 359.937 722.522 386.997C731.13 392.932 738.73 399.715 744.469 407.781C764.175 434.561 782.407 461.59 801.52 488.728" stroke="url(#paint3_linear_4_28)" stroke-miterlimit="10"/>
<path d="M138.853 -40.9637C198.044 -29.2954 217.977 -3.13997 243.731 22.2236C256.595 34.6333 271.296 47.0546 292.981 57.4226C359.643 89.1587 400.856 80.537 483.562 123.563C501.078 132.765 512.633 150.528 522.771 171.467C545.178 217.503 569.496 273.832 600.122 302.179C602.508 304.422 604.713 306.534 607.253 308.363C650.052 340.491 711.468 351.137 750.865 378.193C759.652 384.257 767.25 391.039 773.245 399.028C793.386 425.859 811.612 452.884 830.46 480.093" stroke="url(#paint4_linear_4_28)" stroke-miterlimit="10"/>
<path d="M167.707 -49.4447C226.444 -37.8323 246.63 -11.7561 272.455 13.3977C285.315 25.8059 300.09 38.0191 321.512 48.4619C387.276 80.0848 429.309 72.3246 509.019 115.3C526.453 124.708 537.047 142.566 546.743 163.448C568.55 209.836 595.343 265.062 627.541 293.493C629.927 295.735 632.389 297.771 634.929 299.6C678.312 331.365 739.299 342.5 778.945 369.476C787.73 375.54 795.325 382.321 801.32 390.309C821.895 417.191 839.858 444.289 858.701 471.495" stroke="url(#paint5_linear_4_28)" stroke-miterlimit="10"/>
<path d="M196.605 -57.9251C255.142 -46.4451 275.398 -20.5793 301.215 4.57066C314.072 16.977 328.66 29.0575 350.074 39.4988C415.198 70.9314 458.228 64.1627 534.498 107.033C551.41 116.591 561.484 134.598 570.995 155.347C592.201 202.087 621.467 256.206 655.233 284.721C657.876 286.887 660.338 288.922 662.877 290.751C706.84 322.153 767.654 333.699 807.287 360.671C816.069 366.735 823.844 373.645 830.095 381.556C850.922 408.357 868.621 435.527 887.821 462.991" stroke="url(#paint6_linear_4_28)" stroke-miterlimit="10"/>
<path d="M225.438 -66.4067C283.703 -54.8521 304.291 -29.2721 329.92 -4.25544C342.593 8.01896 357.36 20.2293 378.588 30.5388C442.558 61.9352 486.666 55.9504 559.945 98.7713C576.776 108.535 586.149 126.561 594.96 147.329C615.567 194.423 646.868 247.384 682.566 276.245C685.209 278.411 687.67 280.446 690.208 282.274C735.014 313.238 795.4 325.272 835.207 352.372C844.168 358.565 852.018 365.269 858.009 373.255C879.014 400.184 896.966 427.274 916.162 454.735" stroke="url(#paint7_linear_4_28)" stroke-miterlimit="10"/>
<path d="M254.334 -74.8882C312.4 -63.4655 332.982 -37.8891 358.681 -13.0827C371.349 -0.810116 386.189 11.1917 407.152 21.5757C470.482 52.7823 515.329 47.8647 585.43 90.504C601.92 100.549 610.592 118.594 619.22 139.228C639.226 186.674 672.996 238.53 710.261 267.474C712.903 269.639 715.622 271.598 718.159 273.426C763.363 303.896 823.5 316.548 863.553 343.569C872.769 349.684 880.359 356.463 886.606 364.372C907.863 391.221 925.734 418.515 944.923 445.971" stroke="url(#paint8_linear_4_28)" stroke-miterlimit="10"/>
<path d="M283.512 -83.4524C341.12 -72.0865 362.031 -46.7962 387.723 -21.9934C400.206 -9.85317 415.04 2.14678 435.998 12.5292C498.429 43.6222 544.271 39.6954 611.017 82.0226C627.166 92.3483 635.139 110.413 643.581 130.913C662.912 178.917 699.227 229.462 738.057 258.489C740.956 260.578 743.416 262.612 746.211 264.364C791.995 294.471 851.959 307.535 891.999 334.551C901.213 340.666 908.981 347.574 915.485 355.406C937.175 382.306 955.04 409.595 973.964 437.124" stroke="url(#paint9_linear_4_28)" stroke-miterlimit="10"/>
<path d="M312.366 -91.9358C369.521 -80.6255 390.684 -55.4142 416.446 -30.8209C429.185 -18.7581 443.834 -6.89027 464.528 3.56697C526.064 34.5471 572.465 31.5558 636.481 73.7571C652.55 84.2886 659.564 102.448 667.566 122.891C686.297 171.248 724.642 220.635 765.478 249.801C768.376 251.89 771.094 253.849 773.888 255.6C820.255 285.345 879.609 298.765 920.079 325.833C929.291 331.947 937.057 338.855 943.559 346.686C965.501 373.506 983.103 400.868 1002.39 428.655" stroke="url(#paint10_linear_4_28)" stroke-miterlimit="10"/>
<path d="M341.264 -100.419C398.22 -89.2402 419.635 -64.1084 445.208 -39.6494C457.942 -27.5884 472.587 -15.7223 493.094 -5.39714C553.732 25.4693 600.871 23.5443 661.972 65.4884C677.7 76.3004 684.274 94.4028 691.834 114.789C709.966 163.497 750.519 211.856 793.177 241.029C796.074 243.118 798.791 245.076 801.583 246.827C848.529 276.209 907.712 290.041 948.35 317.235C957.74 323.479 965.761 330.31 972.08 338.008C994.456 364.88 1012.05 392.238 1031.33 420.02" stroke="url(#paint11_linear_4_28)" stroke-miterlimit="10"/>
<path d="M370.096 -108.894C426.779 -97.6415 448.525 -72.7952 473.909 -48.4696C486.459 -36.5405 501.102 -24.6754 521.344 -14.2755C581.529 16.5328 629.149 15.7494 687.16 57.3064C702.549 68.4 708.424 86.5219 715.542 106.851C733.077 155.911 776.097 203.168 820.318 232.425C823.473 234.438 826.189 236.396 828.981 238.147C876.328 267.037 935.522 281.41 976.151 308.601C985.538 314.844 993.558 321.674 1000.06 329.502C1022.86 356.425 1040.2 383.855 1059.47 411.635" stroke="url(#paint12_linear_4_28)" stroke-miterlimit="10"/>
<path d="M398.994 -117.379C455.478 -106.258 477.036 -81.5463 502.671 -57.2997C515.218 -45.3722 529.931 -33.7154 549.91 -23.241C609.198 7.45385 657.296 7.81176 712.657 49.0357C727.964 60.3341 733.063 78.6815 739.817 98.7461C756.495 148.234 801.797 194.257 848.019 223.653C851.173 225.665 854.146 227.547 856.938 229.297C905.12 257.749 963.627 272.685 1004.5 299.796C1013.89 306.038 1021.9 312.867 1028.66 320.619C1051.72 347.461 1068.79 374.964 1088.42 403" stroke="url(#paint13_linear_4_28)" stroke-miterlimit="10"/>
<path d="M428.129 -125.948C484.162 -114.883 506.23 -90.3259 531.678 -66.2128C544.041 -54.4169 558.933 -42.6311 578.725 -32.2883C637.122 -1.70584 685.959 -0.282502 738.415 40.6858C753.383 52.2652 757.785 70.6314 764.098 90.6398C780.18 140.481 827.688 185.478 875.733 214.883C878.886 216.894 881.858 218.776 884.906 220.45C933.671 248.54 992.009 263.888 1032.87 290.996C1042.26 297.238 1050.45 304.196 1057.2 311.946C1080.7 338.84 1097.77 366.34 1117.13 394.45" stroke="url(#paint14_linear_4_28)" stroke-miterlimit="10"/>
<path d="M457.027 -134.438C512.605 -123.429 535.183 -99.0265 560.442 -75.0474C572.801 -63.2533 587.765 -51.6752 607.295 -41.2579C665.055 -10.8645 714.113 -8.22449 763.922 32.4112C778.551 44.2715 782.512 62.5812 788.386 82.5322C804.05 132.855 853.401 176.565 903.443 206.108C906.854 208.043 909.825 209.925 912.616 211.675C961.959 239.403 1019.87 255.237 1061.16 282.397C1070.72 288.767 1078.73 295.594 1085.74 303.268C1109.49 330.083 1126.47 357.786 1146.09 385.815" stroke="url(#paint15_linear_4_28)" stroke-miterlimit="10"/>
<path d="M485.904 -142.93C541.287 -132.053 563.678 -107.784 589.19 -83.8832C601.803 -72.1661 616.325 -60.6445 635.85 -50.2283C692.717 -19.9475 742.256 -16.1666 789.42 24.1373C803.711 36.2785 806.974 54.6071 812.845 74.556C827.657 125.307 879.726 167.84 931.512 197.598C934.921 199.533 937.892 201.414 940.939 203.088C990.862 230.454 1048.42 246.569 1089.89 273.856C1099.44 280.226 1107.89 287.106 1114.46 294.724C1138.64 321.591 1155.61 349.29 1175.15 377.523" stroke="url(#paint16_linear_4_28)" stroke-miterlimit="10"/>
<path d="M514.732 -151.427C569.849 -140.474 592.57 -116.49 617.897 -92.7208C630.327 -81.1358 644.847 -69.6139 664.369 -59.1986C720.351 -29.0291 770.116 -24.032 815.155 15.7899C829.11 28.2125 831.675 46.561 837.108 66.4535C851.323 117.56 905.6 159.069 959.208 188.836C962.617 190.771 965.845 192.576 969.073 194.38C1019.4 221.256 1076.98 237.913 1118.44 265.197C1127.99 271.567 1136.44 278.447 1143.45 286.119C1167.88 312.908 1184.6 340.681 1204.31 369.042" stroke="url(#paint17_linear_4_28)" stroke-miterlimit="10"/>
</g>
<defs>
<linearGradient id="paint0_linear_4_28" x1="356.333" y1="257.411" x2="414.057" y2="177.194" gradientUnits="userSpaceOnUse">
<stop stop-color="white"/>
</linearGradient>
<linearGradient id="paint1_linear_4_28" x1="385.191" y1="248.872" x2="441.533" y2="170.587" gradientUnits="userSpaceOnUse">
<stop stop-color="white"/>
</linearGradient>
<linearGradient id="paint2_linear_4_28" x1="414.017" y1="240.345" x2="468.994" y2="163.968" gradientUnits="userSpaceOnUse">
<stop stop-color="white"/>
</linearGradient>
<linearGradient id="paint3_linear_4_28" x1="442.862" y1="231.808" x2="496.484" y2="157.324" gradientUnits="userSpaceOnUse">
<stop stop-color="white"/>
</linearGradient>
<linearGradient id="paint4_linear_4_28" x1="471.71" y1="223.273" x2="523.987" y2="150.669" gradientUnits="userSpaceOnUse">
<stop stop-color="white"/>
</linearGradient>
<linearGradient id="paint5_linear_4_28" x1="500.535" y1="214.744" x2="551.478" y2="144.001" gradientUnits="userSpaceOnUse">
<stop stop-color="white"/>
</linearGradient>
<linearGradient id="paint6_linear_4_28" x1="529.383" y1="206.207" x2="579.002" y2="137.314" gradientUnits="userSpaceOnUse">
<stop stop-color="white"/>
</linearGradient>
<linearGradient id="paint7_linear_4_28" x1="558.195" y1="197.681" x2="606.503" y2="130.617" gradientUnits="userSpaceOnUse">
<stop stop-color="white"/>
</linearGradient>
<linearGradient id="paint8_linear_4_28" x1="587.043" y1="189.145" x2="634.048" y2="123.901" gradientUnits="userSpaceOnUse">
<stop stop-color="white"/>
</linearGradient>
<linearGradient id="paint9_linear_4_28" x1="615.913" y1="180.603" x2="661.626" y2="117.162" gradientUnits="userSpaceOnUse">
<stop stop-color="white"/>
</linearGradient>
<linearGradient id="paint10_linear_4_28" x1="644.738" y1="172.072" x2="689.169" y2="110.418" gradientUnits="userSpaceOnUse">
<stop stop-color="white"/>
</linearGradient>
<linearGradient id="paint11_linear_4_28" x1="673.587" y1="163.535" x2="716.746" y2="103.656" gradientUnits="userSpaceOnUse">
<stop stop-color="white"/>
</linearGradient>
<linearGradient id="paint12_linear_4_28" x1="702.39" y1="155.012" x2="744.287" y2="96.8905" gradientUnits="userSpaceOnUse">
<stop stop-color="white"/>
</linearGradient>
<linearGradient id="paint13_linear_4_28" x1="731.24" y1="146.474" x2="771.903" y2="90.075" gradientUnits="userSpaceOnUse">
<stop stop-color="white"/>
</linearGradient>
<linearGradient id="paint14_linear_4_28" x1="760.093" y1="137.935" x2="799.574" y2="83.1823" gradientUnits="userSpaceOnUse">
<stop stop-color="white"/>
</linearGradient>
<linearGradient id="paint15_linear_4_28" x1="788.951" y1="129.395" x2="827.295" y2="76.2251" gradientUnits="userSpaceOnUse">
<stop stop-color="white"/>
</linearGradient>
<linearGradient id="paint16_linear_4_28" x1="817.798" y1="120.856" x2="855.047" y2="69.2112" gradientUnits="userSpaceOnUse">
<stop stop-color="white"/>
</linearGradient>
<linearGradient id="paint17_linear_4_28" x1="845.747" y1="112.582" x2="882.363" y2="61.822" gradientUnits="userSpaceOnUse">
<stop stop-color="white"/>
</linearGradient>
<clipPath id="clip0_4_28">
<rect width="542" height="516" fill="white"/>
</clipPath>
</defs>
</svg>
